<svg xmlns="http://www.w3.org/2000/svg" width="1200" height="630" viewBox="0 0 1200 630">
  <defs><linearGradient id="g" x1="0" y1="0" x2="1" y2="1"><stop stop-color="#081F5C"/><stop offset=".6" stop-color="#334EAC"/><stop offset="1" stop-color="#BAD6EB"/></linearGradient></defs>
  <rect width="1200" height="630" fill="url(#g)"/>
  <circle cx="980" cy="130" r="220" fill="#D0E3FF" opacity=".18"/>
  <circle cx="1040" cy="520" r="280" fill="#F7F2EB" opacity=".12"/>
  <g fill="#F7F2EB"><path d="M100 100c2 17 8 23 25 25-17 2-23 8-25 25-2-17-8-23-25-25 17-2 23-8 25-25Z"/><path d="M1060 240c2 12 6 16 18 18-12 2-16 6-18 18-2-12-6-16-18-18 12-2 16-6 18-18Z"/></g>
  <text x="90" y="300" fill="#F7F2EB" font-family="Georgia, serif" font-size="92">Trần Thị Ngọc Anh</text>
  <text x="96" y="380" fill="#D0E3FF" font-family="Arial, sans-serif" font-size="34" letter-spacing="5">PORTFOLIO · NMCNS &amp; AI · 25042352</text>
</svg>
